/* XPM */
static char * pixmap[] = {
/* width height num_colors chars_per_pixel */
"64 64 8 1",
/* colors */
"  c None",
"! c #ffe100",
"# c #eaac1c",
"$ c #dbdbdb",
"% c #c1c1c1",
"& c #997012",
"' c #898989",
"( c #000000",
/* pixels */
"                                                                ",
"                                                                ",
"                                                                ",
"                                                                ",
"                                                                ",
"                                                                ",
"                                                                ",
"                             (((((((                            ",
"                            (!!!!!!!(                           ",
"                            (!!!!!!!(                           ",
"                            ($!!!!!$(                           ",
"                            ($$$$$$$(                           ",
"                            ($$$$$$$(                           ",
"                            ('%%%%%$(                           ",
"                            ('%%%%%$(                           ",
"                            ('%%%%%$(                           ",
"                            ('%%%%%$(                           ",
"                            (((((((((                           ",
"                            (!!!!!!!(                           ",
"                            (!!!!!!!(                           ",
"                            (!!!!!!!(                           ",
"                            (&!!!!!#(                           ",
"                            (&######(                           ",
"                            (&######(                           ",
"                            (&######(                           ",
"                            (&######(                           ",
"                            (&######(                           ",
"                            (&######(                           ",
"                            (&######(                           ",
"                            ((#####((                           ",
"                            (&(((((!(                           ",
"                            (&#####!(                           ",
"                            (&#####!(                           ",
"                            (&#####!(                           ",
"                            (&#####!(                           ",
"                            (&#####!(                           ",
"                            (&#####!(                           ",
"                            (&#####!(                           ",
"                            (&#####!(                           ",
"                            (&#####!(                           ",
"                            (&#####!(                           ",
"                            (&#####!(                           ",
"                            (&#####!(                           ",
"                            (&#####!(                           ",
"                            (&#####!(                           ",
"                            (&#####!(                           ",
"                             (#####(                            ",
"                              (((((                             ",
"                                                                ",
"                                                                ",
"                                                                ",
"                                                                ",
"                                                                ",
"                                                                ",
"                                                                ",
"                                                                ",
"                                                                ",
"                                                                ",
"                                                                ",
"                                                                ",
"                                                                ",
"                                                                ",
"                                                                ",
"                                                                "
};
