/* XPM */
static char * pixmap[] = {
/* width height num_colors chars_per_pixel */
"64 64 7 1",
/* colors */
"  c None",
"! c #ffffff",
"# c #e00b0b",
"$ c #7f7f7f",
"% c #555177",
"& c #2d2d2d",
"' c #010101",
/* pixels */
"                                                                ",
"                                                                ",
"                                                                ",
"                                                                ",
"                                                                ",
"                                                                ",
"                                                                ",
"                                                                ",
"                                                                ",
"                                                                ",
"                                                                ",
"                                                                ",
"                                                                ",
"                                                                ",
"                                                                ",
"                                                                ",
"                                                                ",
"                                                                ",
"                                                                ",
"                                                                ",
"                                                                ",
"                                                                ",
"                                                                ",
"                                                                ",
"                                                                ",
"                                                                ",
"                                                                ",
"                                                                ",
"                                                                ",
"                       ''''                                     ",
"                      '%%%%''''                                 ",
"                     '%%%%%%%%%''''                             ",
"                    '%%%%%%%%%%%%%%''''                         ",
"                   '%%%%%%%%%%%%%%%%%%%''''                     ",
"                  '%%%%%%%%%%%%%%%%%%%%%%%%''''                 ",
"                 '%%%%%%'''%%%%%%%%%%%%%%%%%%%%''''             ",
"                '%%%%%%'&&&''''%%%%%%%%%%%%%%%%%%%%''''         ",
"               '%%%%%%'&&&&&&&&''''%%%%%%%%%%%%%%%%%%%%''''     ",
"              '%%%%%%'&&&&&&&&&&&&&''''%%%%%%%%%%%%%%%%%%%%'''' ",
"             '%%%%%%'&&&'&&&'''&&&&&&&&''''%%%%%%%%%%%%%%%%%%%%'",
"            '%%%%%%'&&&'$&&&&$$''''&&&&&&&&''''%%%%%%%%%%%%%%%' ",
"           '%%%%%%'&&&'$&&&&&&&$$$$''''&&&&&&&&''''%%%%%%%%%%'  ",
"          '%%%%%%'&&&'$&&&&&&&&&&&&$$$$''''&&&&&&&&'%%%%%%%%'   ",
"         '%%%%%%'&&&'$&&&&&&&&&&&&&&&&&$$$$'''&&&&&'%%%%%%%'    ",
"        '%%%%%%'&&&'$&&&&&&&&&''''&&&&&&&&&&&&&&&&'%%%%%%%'     ",
"       '%%%%%%'&&&'$&&&&&&&&&'!!##'&&&&&&&&&&&&&&'%%%%%%%'      ",
"      '%%%%%%'&&&'$&&&&&&&&&'!####'&&&&&&&&$'&&&'%%%%%%%'       ",
"     '%%%%%%'&&&&&&&&&&&&&&&'####'&&&&&&&&$'&&&'%%%%%%%'        ",
"    '%%%%%%'&&&&&&&&&&&&&&&&&''''&&&&&&&&$'&&&'%%%%%%%'         ",
"   '%%%%%%'&&&&&'''$$$$&&&&&&&&&&&&&&&&&$'&&&'%%%%%%%'          ",
"  '%%%%%%%'&&&&&&&&''''$$$$&&&&&&&&&&&&$'&&&'%%%%%%%'           ",
" '%%%%%%%%%''''&&&&&&&&''''$$$$&&&&&&&$'&&&'%%%%%%%'            ",
"'%%%%%%%%%%%%%%''''&&&&&&&&''''$$&&&&$'&&&'%%%%%%%'             ",
"'%%%%%%%%%%%%%%%%%%''''&&&&&&&&'''&&&'&&&'%%%%%%%'              ",
" '''%%%%%%%%%%%%%%%%%%%''''&&&&&&&&&&&&&'%%%%%%%'               ",
"    ''''%%%%%%%%%%%%%%%%%%%''''&&&&&&&&'%%%%%%%'                ",
"        ''''%%%%%%%%%%%%%%%%%%%''''&&&'%%%%%%%'                 ",
"            ''''%%%%%%%%%%%%%%%%%%%'''%%%%%%%'                  ",
"                ''''%%%%%%%%%%%%%%%%%%%%%%%%'                   ",
"                    ''''%%%%%%%%%%%%%%%%%%%'                    ",
"                        ''''%%%%%%%%%%%%%%'                     ",
"                            ''''%%%%%%%%%'                      ",
"                                ''''%%%%'                       ",
"                                    ''''                        "
};
