/* XPM */
static char *result[] = {
/* columns rows colors chars-per-pixel */
"64 64 86 1 ",
"  c black",
". c #010101",
"X c #050402",
"o c #050403",
"O c #070504",
"+ c #080604",
"@ c #0A0705",
"# c #0A0805",
"$ c #0C0906",
"% c #0D0907",
"& c #110D09",
"* c #120D09",
"= c #140F0A",
"- c #15100B",
"; c #19120D",
": c #1C150F",
"> c #201811",
", c #2A2016",
"< c #2F2318",
"1 c #33261A",
"2 c #34261B",
"3 c #3B2C1F",
"4 c #493626",
"5 c #543E2B",
"6 c #57412D",
"7 c #674D35",
"8 c #74573C",
"9 c #97714F",
"0 c #97724F",
"q c #987250",
"w c #997351",
"e c #9A7451",
"r c #9D7652",
"t c #9E7752",
"y c #9E7753",
"u c #9F7753",
"i c #A17954",
"p c #A37A55",
"a c #A57B56",
"s c #A77D57",
"d c #A87D57",
"f c #AB7F58",
"g c #AC8059",
"h c #AD8059",
"j c #AE8159",
"k c #AE825A",
"l c #AF825A",
"z c #B4865D",
"x c #B5865D",
"c c #B5875D",
"v c #B5875E",
"b c #B6875E",
"n c #B6885E",
"m c #B6885F",
"M c #B7885F",
"N c #B7895F",
"B c #B8895F",
"V c #B88960",
"C c #B98A60",
"Z c #BA8B61",
"A c #BB8B61",
"S c #BB8B62",
"D c #BB8C61",
"F c #BB8C62",
"G c #BD8D63",
"H c #BD8E63",
"J c #BE8E63",
"K c #BE8E64",
"L c #BE8F64",
"P c #BF8F64",
"I c #C08F64",
"U c #C09065",
"Y c #C19165",
"T c #C19166",
"R c #C29266",
"E c #C39266",
"W c #C39267",
"Q c #C39367",
"! c #C49367",
"~ c #C49368",
"^ c #C49468",
"/ c #C59468",
"( c #97BEC0",
") c #D890D0",
"_ c #AFDBDD",
"` c None",
/* pixels */
"````````````````````````````````````````````````````````````````",
"````````````````````````````````````````````````````````````````",
"````````````````````````````````````````````````````````````````",
"````````````````````````````````````````````````````````````````",
"````````````````````````````````` ``````````````````````````````",
"```````````````````````````````  )    ``````````````````````````",
"`````````````````````````````  )))))))  ````````````````````````",
"```````````````````````````` ))))))))))) ```````````````````````",
"``````````````````````````` )))))))  ))))  `````````````````````",
"``````````````````````````` ))))))))) )))) `````````````````````",
"`````````````````````````` ))))))))))) ))) `````````````````````",
"`````````````````````````` )))))))))))) ))) ````````````````````",
"``````````````````````````` )))))))))))) ) `````````````````````",
"``````````````````````````` )))))))))))) ) `````````````````````",
"``````````````````````````` ))))))))))))   `````````````````````",
"````````````````````````````  ))))))))  /// ````````````````````",
"```````````````      `````````        ///// ````````````````````",
"``````` ``````` ((((( ```````` ///////////// ```````````````````",
"`````  _ `````` (((((( ``````` ///////////// ```````````````````",
"```` ____ ````  (((((( ``````` ///////////// ```````````````````",
"``` _____ ``` ( (((((( ``````` ///////////// ```````````````````",
"``` ______ `` ( (((((( ``````` /////////////+```````````````````",
"``` ______ ` (( (((((( ``````` ////////////JC>``````````````````",
"``` ______ ` ((( (((((( `````` ///////////!mc6``````````````````",
"``` _______ ((((( ((((( `````` ///////////Tvc3``````````````````",
"``` _______ ((((( ((((( `````` ///////////Ivv1``````````````````",
"```` _______ (((((((((( `````` ///////////Zxn=``````````````````",
"`    _ _____ ((((((((( `````` ///////////UMNU ``````````````````",
"` ____ ______ (((((((( `````` ///////////VzC ```````````````````",
"` _____  _____ ((((((( ````  ///////////GxcH ```````````````````",
"`` ______ ____ (((((( ```` ////////////!bzv%````````````````````",
"`` ____________  ((( ````  ////////////Uzzn ````````````````````",
"     ____________ ((     /////////////Wnzz5`````````````````````",
" ____ ____________  //////////////////Czzn*`````````````````````",
" _____  _______   ///////////////////Yczb,``````````````````````",
" _______  _    /////////////////////!Szz7```````````````````````",
" _________ /////////////////////^YJZnxzm-```````````````````````",
"`  _______ /////////////////!EIFBvxzzvC:````````````````````````",
"``` _____ /////////////////WZbvzzxbNDT.`````````````````````````",
"```  ____ /////////////////TmxvmC4;o  ``````````````````````````",
"`````  _ ///////////////////YKY@  l ````````````````````````````",
"```````  ///////////////////   llll ````````````````````````````",
"```````` /////////////////////  llll ```````````````````````````",
"```````` ////////////////////// llll ```````````````````````````",
"``````` //////////////////////// llll ``````````````````````````",
"``````` //////////////////////// llll ``````````````````````````",
"```````` /////////////////////// llll ``````````````````````````",
"```````` ///////////////////!R// llll ``````````````````````````",
"```````` //////////////////^ANY/ llll ``````````````````````````",
"````````` /!U/////////////JMvcJ lljhl ``````````````````````````",
"````````` /ZxbL!///////~YZzzzbR$gkyrf ``````````````````````````",
"`````````` ZzzxCW/!UPJZMvzzzzZ+iew9qd ``````````````````````````",
"```````````OCvzvNCncxzzzzzzCFQ#u090tX```````````````````````````",
"````````````&mzzzzzzzvvzzxC/  lgapsl ```````````````````````````",
"`````````````8kzzzzzzvzzzZ/         ````````````````````````````",
"```````````````<2IPLHCczF/ `````````````````````````````````````",
"`````````````````    !UQ/ ``````````````````````````````````````",
"`````````````````````    ```````````````````````````````````````",
"````````````````````````````````````````````````````````````````",
"````````````````````````````````````````````````````````````````",
"````````````````````````````````````````````````````````````````",
"````````````````````````````````````````````````````````````````",
"````````````````````````````````````````````````````````````````",
"````````````````````````````````````````````````````````````````"
};
