/* XPM */
static char *result[] = {
/* columns rows colors chars-per-pixel */
"64 64 10 1 ",
"  c black",
". c gray16",
"X c #393939",
"o c #070745",
"O c gray34",
"+ c #6F6F6F",
"@ c #C60000",
"# c #0000C6",
"$ c #B2B2B2",
"% c None",
/* pixels */
"%%%%%%%%%%%%%%%%%%%%%%%%%%%%%%%%%%%%%%%%%%%%%%%%%%%%%%%%%%%%%%%%",
"%%%%%%%%%%%%%%%%%%%%%%%%%%%%%%%%%%%%%%%%%%%%%%%%%%%%%%%%%%%%%%%%",
"%%%%%%%%%%%%%%%%%%%%%%%%%%%%%%%%%%%%%%%%%%%%%%%%%%%%%%%%%%%%%%%%",
"%%%%%%%%%%%%%%%%%%%%%%%%%%%%%%%%%%%%%%%%%%%%%%%%%%%%%%%%%%%%%%%%",
"%%%%%%%%%%%%%%%%%%%%%%%%%%%%%%%%%%%%%%%%%%%%%%%%%%%%%%%%%%%%%%%%",
"%%%%%%%%%%%%%%%%%%%%%%%%%%%%%%%%%%%%%%%%%%%%%%%%%%%%%%%%%%%%%%%%",
"%%%%%%%%%%%%%%%%%%%%%%%%%%%%%%%%%%%%%%%%%%%%%%%%%%%%%%%%%%%%%%%%",
"%%%%%%%%%%%%%%%%%%%%%%%%%%  %%%%%%%%%%%%%%%%%%%%%%%%%%%%%%%%%%%%",
"%%%%%%%%%%%%%%%%%%%%%%%%% OO   %%%%%%%%%%%%%%%%%%%%%%%%%%%%%%%%%",
"%%%%%%%%%%%%%%%%%%%%%%%% OOOOOO   %%%%%%%%%%%%%%%%%%%%%%%%%%%%%%",
"%%%%%%%%%%%%%%%%%%%%%%% OOOOOOOOOO   %%%%%%%%%%%%%%%%%%%%%%%%%%%",
"%%%%%%%%%%%%%%%%%%%%%% OOOO...OOOOOO    %%%%%%%%%%%%%%%%%%%%%%%%",
"%%%%%%%%%%%%%%%%%%%%% OOOO.OOO...OOOOOOO   %%%%%%%%%%%%%%%%%%%%%",
"%%%%%%%%%%%%%%%%%%%% OOOO.OOO.OOO...OOOOOOO   %%%%%%%%%%%%%%%%%%",
"%%%%%%%%%%%%%%%%%%% OOOO.OOO.OOO.OOO...OOOOOO %%%%%%%%%%%%%%%%%%",
"%%%%%%%%%%%%%%%%%% OOOO.OOO.OOO.OOO.OOO.OOOO  %%%%%%%%%%%%%%%%%%",
"%%%%%%%%%%%%%%%%% OOOOOO...OOO.OOO.OOO.OOOO X %%%%%%%%%%%%%%%%%%",
"%%%%%%%%%%%%%%%% OOOOOOOOOO...OOO.OOO.OOOO XX %%%%%%%%%%%%%%%%%%",
"%%%%%%%%%%%%%%%%    OOOOOOOOOO...OOO.OOOO XXX %%%%%%%%%%%%%%%%%%",
"%%%%%%%%%%%%%%%% +++   OOOOOOOOOO...OOOO XXX. %%%%%%%%%%%%%%%%%%",
"%%%%%%%%%%%%%%%% ++O+++    OOOOOOOOOOOO XXX.X %%%%%%%%%%%%%%%%%%",
"%%%%%%%%%%%%%%%% ++O+++++++  OOOOOOOOO XXX.XX %%%%%%%%%%%%%%%%%%",
"%%%%%%%%%%%%%%%% ++O+@@++++++   OOOOO XXX.XXX %%%%%%%%%%%%%%%%%%",
"%%%%%%%%%%%%%%%% ++O+@@+++++++++     XXX.XXX %%%%%%%%%%%%%%%%%%%",
"%%%%%%%%%%%%%%%% ++O+$@+++++++++O++ XXX.XXX %%%%%%%%%%%%%%%%%%%%",
"%%%%%%%%%%%%%%%% ++O+++++++++@@+O++ XX.XXX %%%%%%%%%%%%%%%%%%%%%",
"%%%%%%%%%%%%%%%%%   +++++++++@@+O++ X.XXX %%%%%%%%%%%%%%%%%%%%%%",
"%%%%%%%%%%%%%%%%%%%%   ++++++$@+O++ .XXX %%%%%%%%%%%%%%%%%%%%%%%",
"%%%%%%%%%%%%%%%%%%%%%%%   ++++++O++ XXX %%%%%%%%%%%%%%%%%%%%%%%%",
"%%%%%%%%%%%%%%%%%%%%%%% ++   +++O++ XX  %%%%%%%%%%%%%%%%%%%%%%%%",
"%%%%%%%%%%%%%%%%%%%%%%% +++++   +++ X X %%%%%%%%%%%%%%%%%%%%%%%%",
"%%%%%%%%%%%%%%%%%%%%%%% $$++++++     X+ %%%%%%%%%%%%%%%%%%%%%%%%",
"%%%%%%%%%%%%%%%%%%%%%%% ++$$$+++++ XX+X %%%%%%%%%%%%%%%%%%%%%%%%",
"%%%%%%%%%%%%%%%%%%%%%%% +++++$$$++ X+XX %%%%%%%%%%%%%%%%%%%%%%%%",
"%%%%%%%%%%%%%%%%%%%%%%% $$++++++$$ +XX+ %%%%%%%%%%%%%%%%%%%%%%%%",
"%%%%%%%%%%%%%%%%%%%%%%% ++$$$+++++ XX+X %%%%%%%%%%%%%%%%%%%%%%%%",
"%%%%%%%%%%%%%%%%%%%%%%%   +++$$$++ X+X X %%%%%%%%%%%%%%%%%%%%%%%",
"%%%%%%%%%%%%%%%%%%%%%% +++   +++$$ +X XXX %%%%%%%%%%%%%%%%%%%%%%",
"%%%%%%%%%%%%%%%%%%%%% +++++++   ++ X XXXX %%%%%%%%%%%%%%%%%%%%%%",
"%%%%%%%%%%%%%%%%%%%%% ++++++++++    XXXXXX %%%%%%%%%%%%%%%%%%%%%",
"%%%%%%%%%%%%%%%%%%%% +++++++++++++ XXXXXXXX %%%%%%%%%%%%%%%%%%%%",
"%%%%%%%%%%%%%%%%%%% ++++++++++++++ XXXXXXXXX %%%%%%%%%%%%%%%%%%%",
"%%%%%%%%%%%%%%%%%% +++++++++++++++ XXXXXXXXXo %%%%%%%%%%%%%%%%%%",
"%%%%%%%%%%%%%%%%% ++++++++++++++++ XXXXXXXXo %%%%%%%%%%%%%%%%%%%",
"%%%%%%%%%%%%%%%% +++++++++++++++++ XXXXXXXo %%%%%%%%%%%%%%%%%%%%",
"%%%%%%%%%%%%%%%% ###+++++++++++++++ XXXXXo %%%%%%%%%%%%%%%%%%%%%",
"%%%%%%%%%%%%%%%%%   ###++++++++++++ XXXXo %%%%%%%%%%%%%%%%%%%%%%",
"%%%%%%%%%%%%%%%%%%%%   ###+++++++++ XXXo %%%%%%%%%%%%%%%%%%%%%%%",
"%%%%%%%%%%%%%%%%%%%%%%%   ###++++++ XXo %%%%%%%%%%%%%%%%%%%%%%%%",
"%%%%%%%%%%%%%%%%%%%%%%%%%%   ###+++ Xo %%%%%%%%%%%%%%%%%%%%%%%%%",
"%%%%%%%%%%%%%%%%%%%%%%%%%%%%%   ### o %%%%%%%%%%%%%%%%%%%%%%%%%%",
"%%%%%%%%%%%%%%%%%%%%%%%%%%%%%%%%     %%%%%%%%%%%%%%%%%%%%%%%%%%%",
"%%%%%%%%%%%%%%%%%%%%%%%%%%%%%%%%%%%%%%%%%%%%%%%%%%%%%%%%%%%%%%%%",
"%%%%%%%%%%%%%%%%%%%%%%%%%%%%%%%%%%%%%%%%%%%%%%%%%%%%%%%%%%%%%%%%",
"%%%%%%%%%%%%%%%%%%%%%%%%%%%%%%%%%%%%%%%%%%%%%%%%%%%%%%%%%%%%%%%%",
"%%%%%%%%%%%%%%%%%%%%%%%%%%%%%%%%%%%%%%%%%%%%%%%%%%%%%%%%%%%%%%%%",
"%%%%%%%%%%%%%%%%%%%%%%%%%%%%%%%%%%%%%%%%%%%%%%%%%%%%%%%%%%%%%%%%",
"%%%%%%%%%%%%%%%%%%%%%%%%%%%%%%%%%%%%%%%%%%%%%%%%%%%%%%%%%%%%%%%%",
"%%%%%%%%%%%%%%%%%%%%%%%%%%%%%%%%%%%%%%%%%%%%%%%%%%%%%%%%%%%%%%%%",
"%%%%%%%%%%%%%%%%%%%%%%%%%%%%%%%%%%%%%%%%%%%%%%%%%%%%%%%%%%%%%%%%",
"%%%%%%%%%%%%%%%%%%%%%%%%%%%%%%%%%%%%%%%%%%%%%%%%%%%%%%%%%%%%%%%%",
"%%%%%%%%%%%%%%%%%%%%%%%%%%%%%%%%%%%%%%%%%%%%%%%%%%%%%%%%%%%%%%%%",
"%%%%%%%%%%%%%%%%%%%%%%%%%%%%%%%%%%%%%%%%%%%%%%%%%%%%%%%%%%%%%%%%",
"%%%%%%%%%%%%%%%%%%%%%%%%%%%%%%%%%%%%%%%%%%%%%%%%%%%%%%%%%%%%%%%%"
};
