/* XPM */
static char * pixmap[] = {
/* width height num_colors chars_per_pixel */
"64 64 19 1",
/* colors */
"  c None",
"! c #ffffba",
"# c #ffd452",
"$ c #ff7b3a",
"% c #ff5442",
"& c #e43c3c",
"' c #d59151",
"( c #bf4b4b",
") c #8f3950",
"* c #877f81",
"+ c #83797b",
", c #827a7c",
"- c #686163",
". c #664665",
"/ c #565152",
"0 c #513b50",
"1 c #3f3b3c",
"2 c #0088ff",
"3 c #000000",
/* pixels */
"                                                                ",
"                                   %                            ",
"                                   $%                           ",
"                                   $$&                          ",
"                                  &$#$                          ",
"                                  %%&                           ",
"                                   &                            ",
"                             &     %                            ",
"                            &&    &%                            ",
"                            &%   &%$                            ",
"                           &%#&  %$#&                           ",
"                           &%#&&&%##&                           ",
"                           &&%%&%$#$%&                          ",
"                          &&&&&%%$$$%&                          ",
"                          & &&&&&&$%%&                          ",
"                            0&&..&&&%                           ",
"                            0(+..+(0                            ",
"                            0())))(0                            ",
"                            0))))))0                            ",
"                            0))))))0                            ",
"                          000.)))).000                          ",
"                          00'..))..'00                          ",
"                          0..'((((').0                          ",
"                          0....)))...0                          ",
"                         30..))))))).03                         ",
"                        3**..))))))..0*3                        ",
"                       3***0.))))))..***3                       ",
"                      3*****00000000*****3                      ",
"                     3-******************-3                     ",
"                     3--****************---3                    ",
"                    3-----************-----3                    ",
"                   3--------********--------3                   ",
"                   3------------------------3                   ",
"                   3--!------------------!--3                   ",
"                   3------------------------3                   ",
"                   3-----!------------!-----3                   ",
"                   3,,----!----------!----,,3                   ",
"                   322,--------!!--------,223                   ",
"                   3//2,,--------------,,2//3                   ",
"                   311/22,,,--------,,,22/113                   ",
"                   3111//222,,,,,,,,222//1113                   ",
"                    31111///22222222///11113                    ",
"                    31111111////////11111113                    ",
"                     3111111111111111111113                     ",
"                      311111111111111111113                     ",
"                       3111111111111111113                      ",
"                        31111111111111133                       ",
"                         33111111111133                         ",
"                           3333333333                           ",
"                                                                ",
"                                                                ",
"                                                                ",
"                                                                ",
"                                                                ",
"                                                                ",
"                                                                ",
"                                                                ",
"                                                                ",
"                                                                ",
"                                                                ",
"                                                                ",
"                                                                ",
"                                                                ",
"                                                                "
};
