/* XPM */
static char * pixmap[] = {
/* width height num_colors chars_per_pixel */
"64 64 19 1",
/* colors */
"  c None",
"! c #ffd452",
"# c #ff7b3a",
"$ c #ff5442",
"% c #e43c3c",
"& c #d59151",
"' c #bf4b4b",
"( c #8f3950",
") c #877f81",
"* c #83797b",
"+ c #827a7c",
", c #686163",
"- c #664665",
". c #565152",
"/ c #513b50",
"0 c #3f3b3c",
"1 c #00e100",
"2 c #0088ff",
"3 c #000000",
/* pixels */
"                                                                ",
"                                                                ",
"                                                                ",
"                                                                ",
"                                                                ",
"                                 $                              ",
"                                #%                              ",
"                               ##%                              ",
"                              $#$                               ",
"                             %$$%                               ",
"                             $$%%                               ",
"                            %$$%$%                              ",
"                            $$###$%                             ",
"                           %$##!##$%                            ",
"                           $$#!!!##$                            ",
"                           $##!$#!#$%                           ",
"                           %##$--*'#$                           ",
"                            $#(((('/                            ",
"                            /$(((((/                            ",
"                            /((((((/                            ",
"                          ///-((((-///                          ",
"                          //&--((--&//                          ",
"                          /--&''''&(-/                          ",
"                          /----(((---/                          ",
"                         3/--(((((((-/3                         ",
"                        3))--((((((--/)3                        ",
"                       3)))/-((((((--)))3                       ",
"                      3)))))////////)))))3                      ",
"                     3,)))))))))))))))))),3                     ",
"                     3,,)))))))))))))))),,,3                    ",
"                    3,,,,,)))))))))))),,,,,3                    ",
"                   3,,,,,,,,)))))))),,,,,,,,3                   ",
"                   3,,,,,,,,,,,,,,,,,,,,,,,,3                   ",
"                   3,,1,,,,,,,,,,,,,,,,,,1,,3                   ",
"                   3,,,,,,,,,,,,,,,,,,,,,,,,3                   ",
"                   3,,,,,1,,,,,,,,,,,,1,,,,,3                   ",
"                   3++,,,,1,,,,,,,,,,1,,,,++3                   ",
"                   322+,,,,,,,,11,,,,,,,,+223                   ",
"                   3..2++,,,,,,,,,,,,,,++2..3                   ",
"                   300.22+++,,,,,,,,+++22.003                   ",
"                   3000..222++++++++222..0003                   ",
"                    30000...22222222...00003                    ",
"                    30000000........00000003                    ",
"                     3000000000000000000003                     ",
"                      300000000000000000003                     ",
"                       3000000000000000003                      ",
"                        30000000000000033                       ",
"                         33000000000033                         ",
"                           3333333333                           ",
"                                                                ",
"                                                                ",
"                                                                ",
"                                                                ",
"                                                                ",
"                                                                ",
"                                                                ",
"                                                                ",
"                                                                ",
"                                                                ",
"                                                                ",
"                                                                ",
"                                                                ",
"                                                                ",
"                                                                "
};
