/* XPM */
static char * pixmap[] = {
/* width height num_colors chars_per_pixel */
"64 64 5 1",
/* colors */
"  c None",
"! c #4c2420",
"# c #1a334c",
"$ c #020202",
"% c #010101",
/* pixels */
"                       %%%%                                     ",
"                      %$$$$%%%%                                 ",
"                     %$$$$$$$$$%%%%                             ",
"                    %$$$$$$$$$$$$$$%%%%                         ",
"                   %$$$$$$$$$$$$$$$$$$$%%%%                     ",
"                  %$$$$$$$$$$$$$$$$$$$$$$$$%%%%                 ",
"                 %$$$$$$$$$$$$$$$$$$$$$$$$$$$$$%%%%             ",
"                %$$$$$$$$$$$$$$$$$$$$$$$$$$$$$$$$$$%%%%         ",
"               %$$$$$$$$$$$$$$$$$$$$$$$$$$$$$$$$$$$$$$$%%%%     ",
"              %$$$$$$$$$$$$$$$$$$$$$$$$$$$$$$$$$$$$$$$$$$$$%%%% ",
"             %$$$$$$$$$$$$$$$$$$$$$$$$$$$$$$$$$$$$$$$$$$$$$$$$$%",
"            %$$$$$$$$$$$$$$$$$$$$$$$$$$$$$$$$$$$$$$$$$$$$$$$$$%%",
"           %$$$$$$$$$$$$$$$$$$$$$$$$$$$$$$$$$$$$$$$$$$$$$$$$$%#%",
"          %$$$$$$$$$$$$$$$$$$$$$$$$$$$$$$$$$$$$$$$$$$$$$$$$$%##%",
"         %$$$$$$$$$$$$$$$$$$$$$$$$$$$$$$$$$$$$$$$$$$$$$$$$$%###%",
"        %$$$$$$$$$$$$$$$$$$$$$$$$$$$$$$$$$$$$$$$$$$$$$$$$$%####%",
"       %$$$$$$$$$$$$$$$$$$$$$$$$$$$$$$$$$$$$$$$$$$$$$$$$$%#####%",
"      %$$$$$$$$$$$$$$$$$$$$$$$$$$$$$$$$$$$$$$$$$$$$$$$$$%######%",
"     %$$$$$$$$$$$$$$$$$$$$$$$$$$$$$$$$$$$$$$$$$$$$$$$$$%#######%",
"    %$$$$$$$$$$$$$$$$$$$$$$$$$$$$$$$$$$$$$$$$$$$$$$$$$%########%",
"   %$$$$$$$$$$$$$$$$$$$$$$$$$$$$$$$$$$$$$$$$$$$$$$$$$%#########%",
"  %$$$$$$$$$$$$$$$$$$$$$$$$$$$$$$$$$$$$$$$$$$$$$$$$$%##########%",
" %$$$$$$$$$$$$$$$$$$$$$$$$$$$$$$$$$$$$$$$$$$$$$$$$$%###########%",
"%$$$$$$$$$$$$$$$$$$$$$$$$$$$$$$$$$$$$$$$$$$$$$$$$$%############%",
"%$$$$$$$$$$$$$$$$$$$$$$$$$$$$$$$$$$$$$$$$$$$$$$$$%#############%",
"%%%%$$$$$$$$$$$$$$$$$$$$$$$$$$$$$$$$$$$$$$$$$$$$%##############%",
"%!!!%%%%$$$$$$$$$$$$$$$$$$$$$$$$$$$$$$$$$$$$$$$%###############%",
"%!!!!!!!%%%%$$$$$$$$$$$$$$$$$$$$$$$$$$$$$$$$$$%################%",
"%!!!!!!!!!!!%%%%$$$$$$$$$$$$$$$$$$$$$$$$$$$$$%#################%",
"%!!!!!!!!!!!!!!!%%%%$$$$$$$$$$$$$$$$$$$$$$$$%##################%",
"%!!!!!!!!!!!!!!!!!!!%%%%$$$$$$$$$$$$$$$$$$$%###################%",
"%!!!!!!!!!!!!!!!!!!!!!!!%%%%$$$$$$$$$$$$$$%####################%",
"%!!!!!!!!!!!!!!!!!!!!!!!!!!!%%%%$$$$$$$$$%#####################%",
"%!!!!!!!!!!!!!!!!!!!!!!!!!!!!!!!%%%%$$$$%######################%",
"%!!!!!!!!!!!!!!!!!!!!!!!!!!!!!!!!!!!%%%%#######################%",
"%!!!!!!!!!!!!!!!!!!!!!!!!!!!!!!!!!!!!!%########################%",
"%!!!!!!!!!!!!!!!!!!!!!!!!!!!!!!!!!!!!!%########################%",
"%!!!!!!!!!!!!!!!!!!!!!!!!!!!!!!!!!!!!!%########################%",
"%!!!!!!!!!!!!!!!!!!!!!!!!!!!!!!!!!!!!!%########################%",
"%!!!!!!!!!!!!!!!!!!!!!!!!!!!!!!!!!!!!!%########################%",
"%!!!!!!!!!!!!!!!!!!!!!!!!!!!!!!!!!!!!!%#######################% ",
"%!!!!!!!!!!!!!!!!!!!!!!!!!!!!!!!!!!!!!%######################%  ",
"%!!!!!!!!!!!!!!!!!!!!!!!!!!!!!!!!!!!!!%#####################%   ",
"%!!!!!!!!!!!!!!!!!!!!!!!!!!!!!!!!!!!!!%####################%    ",
"%!!!!!!!!!!!!!!!!!!!!!!!!!!!!!!!!!!!!!%###################%     ",
"%!!!!!!!!!!!!!!!!!!!!!!!!!!!!!!!!!!!!!%##################%      ",
"%!!!!!!!!!!!!!!!!!!!!!!!!!!!!!!!!!!!!!%#################%       ",
"%!!!!!!!!!!!!!!!!!!!!!!!!!!!!!!!!!!!!!%################%        ",
"%!!!!!!!!!!!!!!!!!!!!!!!!!!!!!!!!!!!!!%###############%         ",
"%!!!!!!!!!!!!!!!!!!!!!!!!!!!!!!!!!!!!!%##############%          ",
"%!!!!!!!!!!!!!!!!!!!!!!!!!!!!!!!!!!!!!%#############%           ",
"%!!!!!!!!!!!!!!!!!!!!!!!!!!!!!!!!!!!!!%############%            ",
"%!!!!!!!!!!!!!!!!!!!!!!!!!!!!!!!!!!!!!%###########%             ",
"%!!!!!!!!!!!!!!!!!!!!!!!!!!!!!!!!!!!!!%##########%              ",
" %%%!!!!!!!!!!!!!!!!!!!!!!!!!!!!!!!!!!%#########%               ",
"    %%%%!!!!!!!!!!!!!!!!!!!!!!!!!!!!!!%########%                ",
"        %%%%!!!!!!!!!!!!!!!!!!!!!!!!!!%#######%                 ",
"            %%%%!!!!!!!!!!!!!!!!!!!!!!%######%                  ",
"                %%%%!!!!!!!!!!!!!!!!!!%#####%                   ",
"                    %%%%!!!!!!!!!!!!!!%####%                    ",
"                        %%%%!!!!!!!!!!%###%                     ",
"                            %%%%!!!!!!%##%                      ",
"                                %%%%!!%#%                       ",
"                                    %%%%                        "
};
