/* XPM */
static char *result[] = {
/* columns rows colors chars-per-pixel */
"64 64 8 1 ",
"  c gray8",
". c #1B1B1B",
"X c #252525",
"o c gray15",
"O c #2D2D2D",
"+ c gray20",
"@ c #3F3F3F",
"# c None",
/* pixels */
"####################   #########################################",
"################### OOO   ######################################",
"################## O@@@OOO   ###################################",
"################# O@@@@@@@OOO   ################################",
"################ O@@@@@@@OO@@OOO   #############################",
"############### O@@@@@@@OO@@@@O OOO   ##########################",
"############## O@O@@@@@O @@@@O @@@@OOO   #######################",
"############# O@@ OOO@O @@@@OO@@@@@@@@OO    ####################",
"############ O@@@@   OOO@OOOO@@@@@@@@@O OOOO   #################",
"########### O@@@@@@@O @@O   @@@@@@@@@O O@@O OOO   ##############",
"##########   OOO@@@O @@@@@@O  O@@@@@O O@@O @@@@OOO   ###########",
"######### OOO   OOO @@@@@@@@OOO O@@O O@@OO@@@@@@@@OOO   ########",
"######## O@@@OOO   OOO@@@@@@@@OOOOO OOO@@@@@@@@@@@@O OOO   #####",
"####### O@@@@@@@OOO   OOO@@@@ O@@O O  OOO@@@@@O @OO O@@@OOO   ##",
"###### O@@@ OO @@@ OOO   OOO O@@O O@@@ O O@@@@@OO  O@@@@@@OOOO  ",
"##### O@@@ O@@O   O@@@OOO   OOOO O@@@@@@O O@@@@@@@O@@@@@@O@@@@O ",
"#### O@@@ O@@@@OOO@OOO@ OOOO    OO@@@@@@@@@O@@@@@O@@@@@@O@@@@O  ",
"### O@@@OO@@@@@@@@@@@@OO@@@@OO    OOO@@@@@@@O   OO@@@@@O @@@O . ",
"## O@@@O  @@@@O@@@@@@ O@@@@@O OOOO   OOO@@@O OOO  O@OOO@O  O .. ",
"# O@@@O@@@O  O@@@@@@ O@@@@@O O@@@@OOO   OOO @@@@@@O @@@@@OO .o. ",
" O@@@O@@@@@@@@   @@OO@OOO@O O@@@@@@@ OOO   OOO@@@@@@@@@@@O .oo  ",
"  OOO@@@@@@@@ O@@  O@@@@@O O@OO@@@@ O@@@OOO   OOO@@@@@@@O .o. . ",
" X   OOO@@@@ O@@@@@O @@@O O@@@@@@@@O@@@@@@@OOO   OOO@@@O . .o.. ",
" XXXX   OOO O@@@@@O@@OOO O@@@@@@@@O@OO@@@@@@@@OOO   OOO . .ooo. ",
" X++ XXX   OOO@@@O@@@@O O@OOOO@@ O@@@@OO@O@@@O@@@OOO   . oooo.  ",
" X++ X++XXX   OOO@@@@O O@@@   OOO@@@@@@@O  @O@@@@@@@O .o..oo. . ",
" X+ X++X+++XXX   OOOO O@@@@@@@   O@@@@@@@OO @@@@@@@O . oo .. .o ",
" X+X+++ XXX+++XXX    OO@@@@@@@@@@ OO@@@@@@@OOO@@@@O .. .o . .o. ",
" X+X++++ X XX++++XXX   OOO@@@@@@@@@@@O@@@@O@@@OO@O . . .o. .oo. ",
"  XXX++X+++  X+X+++X XX   OOO@@@@@@@O@@@OO@@@@@@O . o. o. . o o ",
" X   XXX+++X+++X+++X X+XXX   OOO@@@O@@@O @@@@@@O .ooo. . ..  .o ",
" XXXX   XXX++++X ++X   +++XXX   OOO@@@O @@@OO@O .oooo.  .o  .o  ",
" X+++XXX   XXX++X +X XX X +++XXX   OOO @@@@@@O .oo.oo. .oo. oo. ",
" X+XX+++XXX   XXX +X X+X+X +++++XXX   OOO@@@O .oo. o. .ooo. oo. ",
" XX+X++++X XXX   XXX X++++X+++XX+++XXX   OOO .ooo. . .oo .. o o ",
" X++X +++X X++XXX    XX++++XXX++++++X+XXX   .ooooo. ... .o. o . ",
" XX++X  +X X++++XXXX   XXX+X++  ++++X++X+XX ...oo. .oo .oo. o.  ",
"   X++XX   X++++ +++XXX   XXX+++  X+X++X++X . oo. .oo. ooo. . . ",
" X+X+++X+X X++++X+XX+++XXX   XXX+++X++X+ +X  oo. .oo o.ooo.. .o ",
" X++ ++X+X XXX++ X  X+++++XXX   XXX+++X++   .o. . oo o.oo . .oo ",
" X+++ ++XX    XX ++X   +++++X XX   XXX++++X .. .. o .o oo. .o.  ",
"  XXX +++X X++  +++++++XXX++X X+XXX   XXX+X . .o.  .o. o. . . o ",
" X   XXX+X X++X++X+++++++X +X X++++XXX   XX  .o . .oo. . .o .oo ",
" XXXX   XX X++X++X+++XX+++X   X++X++++XXX   .o o. ooo.. .o .oo. ",
"   ++XXX   XXX+++ ++X  XX+++X X++ X++++++XX .o o. ooo. .oo.o . #",
" XX ++++XXX   XXX +++++  X++X X+++ XXX++++X .ooo. oo.  oo.oo. ##",
" X+X++X++++XXX   XXX+++++ X+X XX++++++XX +X .oo.. o. . o. o. ###",
" X+++X ++XX+++XXX   XXX+++++X   X++ X+++X   .o o. . .o . o. ####",
" X+++ ++X  XX++X XXX   XXX++X X+ XX+  X++XX . oo.. .oo . . #####",
"  XXX +++++  X++X +X XX   XXX X+++++XX X++X  oo . .oo. o. ######",
"##   XXX+++X++X++X+X X+XXX   XXX+++X++X+++X .oo. . .o  . #######",
"#####   XXX+++X++++X X+++ XXX   XXX+++X+++  .o. .o .oo  ########",
"########   XXX+++X   X+++ +++XXX   XXX++++X .. .o .oo. #########",
"###########   XXX++X   X+X  ++++XXX   XXX X . .oo.oo. ##########",
"##############   XXX X+ X+XX +++X++XXX   XX  .oo.oo. ###########",
"#################    XX+++++++XX++++++XXX   .oo. o. ############",
"####################   XXX++++  X+++XX+++XX  o. o. #############",
"#######################   XXX+++ ++X  XX++X .o o. ##############",
"##########################   XXX +++++  X+X .o . ###############",
"#############################   XXX+++++++X .o. ################",
"################################   XXX+++ X .. #################",
"###################################   XXX X . ##################",
"######################################   XX  ###################",
"#########################################   ####################"
};
